<svg width="65" height="39" viewBox="0 0 65 39" fill="none" xmlns="http://www.w3.org/2000/svg">
<path fill-rule="evenodd" clip-rule="evenodd" d="M38.3927 15.7489V9.39256H35.7012V5.55859H45.0951V9.39256H42.4036V15.7489H38.3927Z" fill="#8E6EE8"/>
<path d="M45.0462 5.60968V9.34276H42.3547V15.6991H38.4494V9.34276H35.7579V5.60968H45.0462ZM45.1518 5.50879H35.6523V9.44366H38.3439V15.8H42.4603V9.44366H45.1518V5.50879Z" fill="#8E6EE8"/>
<path fill-rule="evenodd" clip-rule="evenodd" d="M19.8047 15.6485V9.16504C20.2142 11.0397 21.7732 12.5208 23.8156 12.8547V15.6485H19.8047Z" fill="#8E6EE8"/>
<path d="M24.5603 13.8477C21.8836 13.8477 19.7051 11.7652 19.7051 9.20655C19.7051 6.64788 21.8836 4.56543 24.5603 4.56543C27.2371 4.56543 29.4156 6.64788 29.4156 9.20655C29.4156 11.7652 27.2371 13.8477 24.5603 13.8477Z" fill="#8E6EE8"/>
<path fill-rule="evenodd" clip-rule="evenodd" d="M29.084 15.7772V9.54492H35.9511V11.5134H31.8346V11.6768H35.9511V13.6453H31.8346V13.8087H35.9511V15.7772H29.084Z" fill="#8E6EE8"/>
<path d="M35.9023 9.59601V11.4636H31.7858V11.7279H35.9023V13.5955H31.7858V13.8598H35.9023V15.7274H29.1407V9.59601H35.9023ZM36.0078 9.49512H29.0352V15.8283H36.0078V13.7589H31.8914V13.6964H36.0078V11.627H31.8914V11.5645H36.0078V9.49512Z" fill="#8E6EE8"/>
<path d="M29.2517 33.6114C32.4294 33.6114 35.0054 31.1562 35.0054 28.1275C35.0054 25.0988 32.4294 22.6436 29.2517 22.6436C26.074 22.6436 23.498 25.0988 23.498 28.1275C23.498 31.1562 26.074 33.6114 29.2517 33.6114Z" fill="#FFED8E"/>
<path d="M49.9626 33.6114C53.1403 33.6114 55.7163 31.1562 55.7163 28.1275C55.7163 25.0988 53.1403 22.6436 49.9626 22.6436C46.785 22.6436 44.209 25.0988 44.209 28.1275C44.209 31.1562 46.785 33.6114 49.9626 33.6114Z" fill="#FFED8E"/>
<path d="M22.245 19.7783C20.9962 18.9902 19.499 18.5312 17.8878 18.5312C13.5188 18.5312 9.97656 21.9074 9.97656 26.0716C9.97656 30.2359 13.5188 33.612 17.8878 33.612C22.2569 33.612 25.7991 30.2359 25.7991 26.0716H18.4323L22.245 19.7783Z" fill="#11BBB0"/>
<path d="M42.9559 19.7783C41.7071 18.9902 40.2099 18.5312 38.5988 18.5312C34.2297 18.5312 30.6875 21.9074 30.6875 26.0716C30.6875 30.2359 34.2297 33.612 38.5988 33.612C42.9678 33.612 46.51 30.2359 46.51 26.0716H39.1432L42.9559 19.7783Z" fill="#11BBB0"/>
</svg>
