<svg width="24" height="24" viewBox="0 0 24 24" fill="none" xmlns="http://www.w3.org/2000/svg">
<g id="icon/chat(message)">
<path id="Vector" d="M4.095 18.3831L7.266 17.3256L7.821 17.6031C9.096 18.2391 10.5135 18.5781 12 18.5781C16.965 18.5781 21 14.6691 21 10.3281C21 5.98712 16.965 2.07812 12 2.07812C7.035 2.07812 3 5.98712 3 10.3281C3 11.9481 3.585 13.5921 4.6605 14.9976L5.178 15.6726L4.0935 18.3816L4.095 18.3831ZM3.0345 20.3181C2.89876 20.3636 2.75284 20.3693 2.61397 20.3345C2.47511 20.2997 2.3491 20.2259 2.25084 20.1218C2.15257 20.0177 2.08615 19.8876 2.05942 19.747C2.03269 19.6064 2.04677 19.461 2.1 19.3281L3.468 15.9081C2.22 14.2731 1.5 12.3171 1.5 10.3281C1.5 5.35713 6 0.578125 12 0.578125C18 0.578125 22.5 5.35713 22.5 10.3281C22.5 15.2991 18 20.0781 12 20.0781C10.3173 20.0829 8.65666 19.6946 7.1505 18.9441L3.0345 20.3166V20.3181Z" fill="#8E6EE8"/>
<path id="Vector_2" d="M12.0008 11.2008C11.8432 11.2008 11.6872 11.1697 11.5416 11.1094C11.396 11.0491 11.2637 10.9607 11.1523 10.8493C11.0408 10.7379 10.9524 10.6056 10.8921 10.46C10.8318 10.3144 10.8008 10.1584 10.8008 10.0008C10.8008 9.8432 10.8318 9.68715 10.8921 9.54156C10.9524 9.39597 11.0408 9.26368 11.1523 9.15225C11.2637 9.04082 11.396 8.95243 11.5416 8.89213C11.6872 8.83182 11.8432 8.80078 12.0008 8.80078C12.319 8.80078 12.6243 8.92721 12.8493 9.15225C13.0744 9.3773 13.2008 9.68252 13.2008 10.0008C13.2008 10.319 13.0744 10.6243 12.8493 10.8493C12.6243 11.0744 12.319 11.2008 12.0008 11.2008ZM16.5008 11.2008C16.3432 11.2008 16.1872 11.1697 16.0416 11.1094C15.896 11.0491 15.7637 10.9607 15.6523 10.8493C15.5408 10.7379 15.4524 10.6056 15.3921 10.46C15.3318 10.3144 15.3008 10.1584 15.3008 10.0008C15.3008 9.8432 15.3318 9.68715 15.3921 9.54156C15.4524 9.39597 15.5408 9.26368 15.6523 9.15225C15.7637 9.04082 15.896 8.95243 16.0416 8.89213C16.1872 8.83182 16.3432 8.80078 16.5008 8.80078C16.819 8.80078 17.1243 8.92721 17.3493 9.15225C17.5744 9.3773 17.7008 9.68252 17.7008 10.0008C17.7008 10.319 17.5744 10.6243 17.3493 10.8493C17.1243 11.0744 16.819 11.2008 16.5008 11.2008ZM7.50078 11.2008C7.3432 11.2008 7.18715 11.1697 7.04156 11.1094C6.89597 11.0491 6.76368 10.9607 6.65225 10.8493C6.54082 10.7379 6.45243 10.6056 6.39213 10.46C6.33182 10.3144 6.30078 10.1584 6.30078 10.0008C6.30078 9.8432 6.33182 9.68715 6.39213 9.54156C6.45243 9.39597 6.54082 9.26368 6.65225 9.15225C6.76368 9.04082 6.89597 8.95243 7.04156 8.89213C7.18715 8.83182 7.3432 8.80078 7.50078 8.80078C7.81904 8.80078 8.12427 8.92721 8.34931 9.15225C8.57435 9.3773 8.70078 9.68252 8.70078 10.0008C8.70078 10.319 8.57435 10.6243 8.34931 10.8493C8.12427 11.0744 7.81904 11.2008 7.50078 11.2008Z" fill="#8E6EE8"/>
</g>
</svg>
