<svg width="24" height="24" viewBox="0 0 24 24" fill="none" xmlns="http://www.w3.org/2000/svg">
<path d="M22.4594 17.1708L21.1894 10.4808C21.0126 9.54543 20.5487 8.68842 19.8623 8.02889C19.1759 7.36936 18.301 6.9401 17.3594 6.80078C18.0717 7.75528 18.5107 8.8857 18.6294 10.0708L19.0894 14.6208C19.1563 15.2492 19.0942 15.8847 18.9067 16.4883C18.7193 17.0919 18.4105 17.6508 17.9994 18.1308C18.132 18.7262 18.4957 19.2445 19.0105 19.5718C19.5253 19.899 20.149 20.0084 20.7444 19.8758C21.3398 19.7432 21.8581 19.3795 22.1854 18.8647C22.5126 18.3499 22.622 17.7262 22.4894 17.1308L22.4594 17.1708Z" stroke="#8E6EE8" stroke-width="1.5" stroke-linecap="round" stroke-linejoin="round"/>
<path d="M4.90939 14.6208L5.36939 10.0708C5.48803 8.8857 5.92706 7.75528 6.63939 6.80078C5.69773 6.9401 4.82287 7.36936 4.13646 8.02889C3.45005 8.68842 2.9862 9.54543 2.80939 10.4808L1.53939 17.1708C1.40678 17.7662 1.51613 18.3899 1.84338 18.9047C2.17063 19.4195 2.68898 19.7832 3.28439 19.9158C3.8798 20.0484 4.5035 19.939 5.01829 19.6118C5.53308 19.2845 5.89678 18.7662 6.02939 18.1708C5.60774 17.6884 5.29054 17.124 5.09778 16.513C4.90502 15.902 4.84088 15.2578 4.90939 14.6208Z" stroke="#8E6EE8" stroke-width="1.5" stroke-linecap="round" stroke-linejoin="round"/>
<path d="M14.4204 19.7403H9.58041C8.92736 19.7434 8.28094 19.6094 7.68288 19.3471C7.08482 19.0848 6.54843 18.7 6.10834 18.2175C5.66825 17.735 5.33425 17.1655 5.12791 16.5459C4.92157 15.9263 4.84747 15.2704 4.91041 14.6203L5.37041 10.0703C5.52981 8.42419 6.29779 6.89678 7.52405 5.78704C8.75031 4.67731 10.3466 4.06514 12.0004 4.07035C13.6543 4.06514 15.2505 4.67731 16.4768 5.78704C17.703 6.89678 18.471 8.42419 18.6304 10.0703L19.0904 14.6203C19.1533 15.2704 19.0792 15.9263 18.8729 16.5459C18.6666 17.1655 18.3326 17.735 17.8925 18.2175C17.4524 18.7 16.916 19.0848 16.3179 19.3471C15.7199 19.6094 15.0735 19.7434 14.4204 19.7403Z" stroke="#8E6EE8" stroke-width="1.5" stroke-linecap="round" stroke-linejoin="round"/>
<path d="M12.0003 16.1393L10.5703 14.5293C10.5703 14.1978 10.702 13.8798 10.9364 13.6454C11.1708 13.411 11.4888 13.2793 11.8203 13.2793H12.1803C12.5118 13.2793 12.8298 13.411 13.0642 13.6454C13.2986 13.8798 13.4303 14.1978 13.4303 14.5293L12.0003 16.1393Z" stroke="#8E6EE8" stroke-width="1.5" stroke-linecap="round" stroke-linejoin="round"/>
<path d="M12 16.1406V19.7406" stroke="#8E6EE8" stroke-width="1.5" stroke-linecap="round" stroke-linejoin="round"/>
<path d="M8.84961 10.1406V10.9806" stroke="#8E6EE8" stroke-width="1.5" stroke-linecap="round" stroke-linejoin="round"/>
<path d="M15.1504 10.1406V10.9806" stroke="#8E6EE8" stroke-width="1.5" stroke-linecap="round" stroke-linejoin="round"/>
</svg>
