<svg width="24" height="24" viewBox="0 0 24 24" fill="none" xmlns="http://www.w3.org/2000/svg">
<g clip-path="url(#clip0_699_29116)">
<path d="M11.7798 12.7208H12.2198C13.2806 12.7208 14.2981 13.1422 15.0482 13.8923C15.7984 14.6425 16.2198 15.6599 16.2198 16.7208V22.5008H7.75978V16.7308C7.75845 16.2029 7.8616 15.6801 8.06328 15.1923C8.26496 14.7045 8.56117 14.2615 8.93486 13.8888C9.30855 13.516 9.75232 13.2209 10.2406 13.0204C10.7289 12.82 11.252 12.7181 11.7798 12.7208Z" stroke="#8E6EE8" stroke-width="1.5" stroke-linecap="round" stroke-linejoin="round"/>
<path d="M4.34961 19.6797H7.75961" stroke="#8E6EE8" stroke-width="1.5" stroke-linecap="round" stroke-linejoin="round"/>
<path d="M16.2402 19.6797H19.6502" stroke="#8E6EE8" stroke-width="1.5" stroke-linecap="round" stroke-linejoin="round"/>
<path d="M11.9991 4.81L19.6491 10.55L22.4591 9.35L11.9991 1.5L1.53906 9.35L4.34906 10.55L11.9991 4.81Z" stroke="#8E6EE8" stroke-width="1.5" stroke-linecap="round" stroke-linejoin="round"/>
<path d="M18.0896 22.5005H5.90961C5.51761 22.5197 5.1339 22.3834 4.84181 22.1212C4.54972 21.8591 4.37285 21.4923 4.34961 21.1005V10.5505L11.9996 4.81055L19.6496 10.5505V21.1005C19.6264 21.4923 19.4495 21.8591 19.1574 22.1212C18.8653 22.3834 18.4816 22.5197 18.0896 22.5005Z" stroke="#8E6EE8" stroke-width="1.5" stroke-linecap="round" stroke-linejoin="round"/>
</g>
<defs>
<clipPath id="clip0_699_29116">
<rect width="24" height="24" fill="#8E6EE8"/>
</clipPath>
</defs>
</svg>
