<svg width="16" height="18" viewBox="0 0 16 18" fill="none" xmlns="http://www.w3.org/2000/svg">
<path fill-rule="evenodd" clip-rule="evenodd" d="M10.7042 12.0674H10.1747L9.87712 12.5053L8.01246 15.2487L6.28016 12.53L5.98538 12.0674H5.43681C3.03874 12.0674 1 10.1164 1 7.80054V7C1 4.20136 3.26874 1.93262 6.06738 1.93262H9.70801C12.5066 1.93262 14.7754 4.20136 14.7754 7V7.99617C14.7754 10.2446 12.9526 12.0674 10.7042 12.0674ZM7.98551 17.0674L8.59751 16.1669L10.7042 13.0674C13.5049 13.0674 15.7754 10.7969 15.7754 7.99617V7C15.7754 3.64908 13.0589 0.932617 9.70801 0.932617H6.06738C2.71646 0.932617 0 3.64908 0 7V7.80054C0 10.7093 2.52801 13.0674 5.43681 13.0674L7.40046 16.1492L7.98551 17.0674ZM4.81348 7.82812C5.22769 7.82812 5.56348 7.49234 5.56348 7.07812C5.56348 6.66391 5.22769 6.32812 4.81348 6.32812C4.39926 6.32812 4.06348 6.66391 4.06348 7.07812C4.06348 7.49234 4.39926 7.82812 4.81348 7.82812ZM8.87695 7.07812C8.87695 7.49234 8.54117 7.82812 8.12695 7.82812C7.71274 7.82812 7.37695 7.49234 7.37695 7.07812C7.37695 6.66391 7.71274 6.32812 8.12695 6.32812C8.54117 6.32812 8.87695 6.66391 8.87695 7.07812ZM11.4404 7.82812C11.8546 7.82812 12.1904 7.49234 12.1904 7.07812C12.1904 6.66391 11.8546 6.32812 11.4404 6.32812C11.0262 6.32812 10.6904 6.66391 10.6904 7.07812C10.6904 7.49234 11.0262 7.82812 11.4404 7.82812Z" fill="#D2CDF6"/>
</svg>
