<svg width="16" height="16" viewBox="0 0 16 16" fill="none" xmlns="http://www.w3.org/2000/svg">
<g id="mdi:information-outline">
<path id="Vector" d="M7.33301 5.99992H8.66634V4.66658H7.33301M7.99967 13.3333C5.05967 13.3333 2.66634 10.9399 2.66634 7.99992C2.66634 5.05992 5.05967 2.66659 7.99967 2.66659C10.9397 2.66659 13.333 5.05992 13.333 7.99992C13.333 10.9399 10.9397 13.3333 7.99967 13.3333ZM7.99967 1.33325C7.1242 1.33325 6.25729 1.50569 5.44845 1.84072C4.63961 2.17575 3.90469 2.66682 3.28563 3.28587C2.03539 4.53612 1.33301 6.23181 1.33301 7.99992C1.33301 9.76803 2.03539 11.4637 3.28563 12.714C3.90469 13.333 4.63961 13.8241 5.44845 14.1591C6.25729 14.4941 7.1242 14.6666 7.99967 14.6666C9.76778 14.6666 11.4635 13.9642 12.7137 12.714C13.964 11.4637 14.6663 9.76803 14.6663 7.99992C14.6663 7.12444 14.4939 6.25753 14.1589 5.4487C13.8238 4.63986 13.3328 3.90493 12.7137 3.28587C12.0947 2.66682 11.3597 2.17575 10.5509 1.84072C9.74206 1.50569 8.87515 1.33325 7.99967 1.33325ZM7.33301 11.3333H8.66634V7.33325H7.33301V11.3333Z" fill="#999999"/>
</g>
</svg>
