<svg width="173" height="57" viewBox="0 0 173 57" fill="none" xmlns="http://www.w3.org/2000/svg">
<path d="M148.054 30.1186C143.725 31.2159 133.666 31.3988 129.521 30.9111C125.497 30.5453 123.059 28.0459 123.059 25.1196C122.998 21.6447 125.924 19.9987 131.106 20.3645C138.3 20.9132 146.712 20.5474 154.272 17.8041C155.43 17.3773 154.942 15.7923 153.845 16.1581C144.03 19.2672 136.958 18.9014 129.46 17.865C124.583 17.1944 120.011 15.1827 120.011 10.9152C120.011 2.31945 130.191 1.58789 142.018 1.58789C152.382 1.58789 162.441 1.89271 165.794 8.35479C168.842 14.3292 168.598 23.5346 167.013 31.155C165.977 36.2759 161.831 38.0438 157.076 38.2267C152.077 38.4096 148.602 35.3005 148.054 30.1186ZM129.765 39.8117C129.704 39.1411 129.643 38.4705 129.643 37.8609C129.643 33.9593 132.203 32.3742 138.361 32.3742C145.127 32.3742 147.139 34.6299 147.139 38.5925C147.139 39.2021 147.139 39.7508 147.078 40.3604C152.992 40.2994 158.966 39.9946 165.123 39.385C169.817 38.8973 172.5 42.3722 172.5 46.6396C172.5 51.8824 169.817 54.5648 165.062 55.0525C151.468 56.3937 138.848 56.3937 125.253 55.0525C120.62 54.5648 117.877 51.8824 117.877 46.6396C117.877 42.3722 120.62 38.8973 125.253 39.385C126.778 39.5069 128.302 39.6898 129.765 39.8117Z" fill="#8E6EE8"/>
<path d="M90.1279 30.1186C85.7995 31.2159 75.7406 31.3988 71.5951 30.9111C67.5716 30.5453 65.133 28.0459 65.133 25.1196C65.0721 21.6447 67.9983 19.9987 73.1802 20.3645C80.3738 20.9132 88.7867 20.5474 96.3461 17.8041C97.5044 17.3773 97.0167 15.7923 95.9194 16.1581C86.1043 19.2672 79.0326 18.9014 71.5342 17.865C66.6571 17.1944 62.0849 15.1827 62.0849 10.9152C62.0849 2.31945 72.2657 1.58789 84.0925 1.58789C94.4563 1.58789 104.515 1.89271 107.868 8.35479C110.916 14.3292 110.672 23.5346 109.087 31.155C108.051 36.2759 103.906 38.0438 99.1504 38.2267C94.1514 38.4096 90.6766 35.3005 90.1279 30.1186ZM71.839 39.8117C71.778 39.1411 71.717 38.4705 71.717 37.8609C71.717 33.9593 74.2775 32.3742 80.4348 32.3742C87.2017 32.3742 89.2134 34.6299 89.2134 38.5925C89.2134 39.2021 89.2134 39.7508 89.1525 40.3604C95.0659 40.2994 101.04 39.9946 107.198 39.385C111.892 38.8973 114.574 42.3722 114.574 46.6396C114.574 51.8824 111.892 54.5648 107.137 55.0525C93.5418 56.3937 80.9225 56.3937 67.3277 55.0525C62.6945 54.5648 59.9512 51.8824 59.9512 46.6396C59.9512 42.3722 62.6945 38.8973 67.3277 39.385C68.8518 39.5069 70.3759 39.6898 71.839 39.8117Z" fill="#8E6EE8"/>
<path d="M50.1239 36.8253C46.3442 36.8253 43.8447 34.082 44.3324 28.5344C44.8201 22.3161 44.8201 15.1834 44.3934 9.51389C43.8447 3.47854 46.3442 0.613281 50.1239 0.613281C53.4769 0.613281 55.9764 3.0518 56.2812 8.05077C56.586 14.3909 56.647 23.1696 56.2812 29.5098C55.9154 34.4478 53.4769 36.8253 50.1239 36.8253ZM26.3483 22.499C26.2874 22.8038 26.1654 23.1696 26.0435 23.5354C28.2991 24.206 29.2136 26.0958 29.2136 28.9611C29.2136 32.3141 28.0553 34.3258 24.8852 34.6307C18.667 35.3622 10.9856 35.2403 4.88934 34.3868C1.6583 33.9601 0.5 32.0702 0.5 28.7172C0.5 25.7301 1.41445 23.7183 4.03586 23.1696C3.06045 19.4509 3.06045 16.6466 3.85297 12.7449C1.41445 12.0743 0.5 10.1235 0.5 7.31922C0.5 4.02721 1.6583 2.01543 4.88934 1.64965C10.9856 0.918096 18.667 0.674243 24.8852 1.4058C28.0553 1.71062 29.2136 3.7224 29.2136 7.0144C29.2136 9.75774 28.3601 11.5866 26.2874 12.3182C26.3483 12.623 26.4093 12.8668 26.4703 13.1717H30.9815C30.9206 12.1353 30.8596 11.038 30.7986 10.0016C30.3109 4.02721 32.6885 1.28387 36.5292 1.28387C39.8821 1.28387 42.2597 3.66143 42.6255 8.47751C42.9912 14.5738 42.9912 22.0113 42.6255 28.1076C42.2597 33.0456 39.8821 35.3622 36.5292 35.3622C32.6885 35.3622 30.189 32.5579 30.6767 27.1932C30.7986 25.6081 30.9206 24.0231 30.9815 22.499H26.3483ZM14.4605 22.6819C15.0092 22.6819 15.4969 22.6819 16.0456 22.6819C16.2894 19.0241 16.2894 16.4027 16.1065 13.2326C15.5579 13.2326 14.9482 13.2936 14.3996 13.2936C14.2167 16.4637 14.2167 19.0851 14.4605 22.6819ZM27.6895 44.3238C27.5066 44.7505 27.8114 45.1163 28.2382 45.2382C31.2254 45.8479 33.6639 47.1281 33.6639 50.7249C33.6639 54.6265 28.2991 56.0287 19.0937 56.0287C10.0712 56.0287 4.76741 53.5292 4.76741 48.5302C4.76741 40.2393 14.9482 36.4595 31.5302 36.4595C47.8073 36.4595 56.0983 40.8489 56.0983 48.896C56.0983 53.4073 53.4769 56.0287 46.2832 56.0287C38.6629 56.0287 35.6757 54.3217 35.3709 50.481C35.066 46.0917 32.3227 44.6896 28.604 43.7751C28.1772 43.7142 27.8114 43.8361 27.6895 44.3238Z" fill="#8E6EE8"/>
</svg>
